<svg xmlns="http://www.w3.org/2000/svg" viewBox="0 0 24 24" width="24" height="24" fill="#25D366">
  <path d="M20.52 3.48A11.9 11.9 0 0012 .5 11.94 11.94 0 001.4 11.23c0 2.1.55 4.14 1.6 5.95L.5 23.5l6.55-2.15A11.93 11.93 0 0012 23.5c6.63 0 12-5.37 12-12 0-3.2-1.25-6.2-3.48-8.02zM12 21.5a9.37 9.37 0 01-4.72-1.24l-.34-.2-3.9 1.28 1.32-3.83-.22-.35A9.33 9.33 0 012.7 11.23 9.5 9.5 0 1112 21.5z"/>
  <path d="M17.31 14.1c-.3-.15-1.78-.88-2.05-.98-.27-.1-.47-.15-.67.15s-.77.98-.94 1.18c-.17.2-.34.22-.63.07a5.34 5.34 0 01-1.57-.97c-.58-.5-.97-1.12-1.09-1.37-.12-.25-.01-.38.09-.53.09-.13.2-.34.3-.5.1-.17.13-.28.2-.47.07-.19.03-.35-.02-.5-.05-.15-.67-1.6-.92-2.2-.24-.58-.49-.5-.67-.51-.17-.01-.37-.01-.57-.01s-.5.07-.76.35c-.26.28-.99.97-.99 2.36s1.02 2.73 1.16 2.93c.14.2 2.01 3.04 4.87 4.26 2.86 1.23 2.86.82 3.38.77.52-.05 1.7-.69 1.94-1.36.24-.67.24-1.25.17-1.36-.07-.11-.27-.18-.57-.33z" fill="#fff"/>
</svg>